<svg id="visual" viewBox="0 0 900 600" width="900" height="600" xmlns="http://www.w3.org/2000/svg" xmlns:xlink="http://www.w3.org/1999/xlink" version="1.1"><rect x="0" y="0" width="900" height="600" fill="#002233"></rect><path d="M0 51L5.2 47.5C10.3 44 20.7 37 31 38.2C41.3 39.3 51.7 48.7 62 57.2C72.3 65.7 82.7 73.3 93 73.7C103.3 74 113.7 67 124 63C134.3 59 144.7 58 155 61.3C165.3 64.7 175.7 72.3 186 75.3C196.3 78.3 206.7 76.7 217 74.2C227.3 71.7 237.7 68.3 248 67C258.3 65.7 268.7 66.3 279 64.8C289.3 63.3 299.7 59.7 310 63C320.3 66.3 330.7 76.7 341 75.3C351.3 74 361.7 61 372 54.2C382.3 47.3 392.7 46.7 403 46.3C413.3 46 423.7 46 434.2 49C444.7 52 455.3 58 465.8 56.5C476.3 55 486.7 46 497 41.5C507.3 37 517.7 37 528 44.8C538.3 52.7 548.7 68.3 559 76.3C569.3 84.3 579.7 84.7 590 85.3C600.3 86 610.7 87 621 77.7C631.3 68.3 641.7 48.7 652 48C662.3 47.3 672.7 65.7 683 66.2C693.3 66.7 703.7 49.3 714 46.2C724.3 43 734.7 54 745 56.2C755.3 58.3 765.7 51.7 776 45.8C786.3 40 796.7 35 807 39.5C817.3 44 827.7 58 838 64.3C848.3 70.7 858.7 69.3 869 65.8C879.3 62.3 889.7 56.7 894.8 53.8L900 51L900 0L894.8 0C889.7 0 879.3 0 869 0C858.7 0 848.3 0 838 0C827.7 0 817.3 0 807 0C796.7 0 786.3 0 776 0C765.7 0 755.3 0 745 0C734.7 0 724.3 0 714 0C703.7 0 693.3 0 683 0C672.7 0 662.3 0 652 0C641.7 0 631.3 0 621 0C610.7 0 600.3 0 590 0C579.7 0 569.3 0 559 0C548.7 0 538.3 0 528 0C517.7 0 507.3 0 497 0C486.7 0 476.3 0 465.8 0C455.3 0 444.7 0 434.2 0C423.7 0 413.3 0 403 0C392.7 0 382.3 0 372 0C361.7 0 351.3 0 341 0C330.7 0 320.3 0 310 0C299.7 0 289.3 0 279 0C268.7 0 258.3 0 248 0C237.7 0 227.3 0 217 0C206.7 0 196.3 0 186 0C175.7 0 165.3 0 155 0C144.7 0 134.3 0 124 0C113.7 0 103.3 0 93 0C82.7 0 72.3 0 62 0C51.7 0 41.3 0 31 0C20.7 0 10.3 0 5.2 0L0 0Z" fill="#0066FF" stroke-linecap="round" stroke-linejoin="miter"></path></svg>