<svg id="visual" viewBox="0 0 900 600" width="900" height="600" xmlns="http://www.w3.org/2000/svg" xmlns:xlink="http://www.w3.org/1999/xlink" version="1.1"><rect x="0" y="0" width="900" height="600" fill="#002233"></rect><path d="M0 547L5.2 550.5C10.3 554 20.7 561 31 559.8C41.3 558.7 51.7 549.3 62 540.8C72.3 532.3 82.7 524.7 93 524.3C103.3 524 113.7 531 124 535C134.3 539 144.7 540 155 536.7C165.3 533.3 175.7 525.7 186 522.7C196.3 519.7 206.7 521.3 217 523.8C227.3 526.3 237.7 529.7 248 531C258.3 532.3 268.7 531.7 279 533.2C289.3 534.7 299.7 538.3 310 535C320.3 531.7 330.7 521.3 341 522.7C351.3 524 361.7 537 372 543.8C382.3 550.7 392.7 551.3 403 551.7C413.3 552 423.7 552 434.2 549C444.7 546 455.3 540 465.8 541.5C476.3 543 486.7 552 497 556.5C507.3 561 517.7 561 528 553.2C538.3 545.3 548.7 529.7 559 521.7C569.3 513.7 579.7 513.3 590 512.7C600.3 512 610.7 511 621 520.3C631.3 529.7 641.7 549.3 652 550C662.3 550.7 672.7 532.3 683 531.8C693.3 531.3 703.7 548.7 714 551.8C724.3 555 734.7 544 745 541.8C755.3 539.7 765.7 546.3 776 552.2C786.3 558 796.7 563 807 558.5C817.3 554 827.7 540 838 533.7C848.3 527.3 858.7 528.7 869 532.2C879.3 535.7 889.7 541.3 894.8 544.2L900 547L900 601L894.8 601C889.7 601 879.3 601 869 601C858.7 601 848.3 601 838 601C827.7 601 817.3 601 807 601C796.7 601 786.3 601 776 601C765.7 601 755.3 601 745 601C734.7 601 724.3 601 714 601C703.7 601 693.3 601 683 601C672.7 601 662.3 601 652 601C641.7 601 631.3 601 621 601C610.7 601 600.3 601 590 601C579.7 601 569.3 601 559 601C548.7 601 538.3 601 528 601C517.7 601 507.3 601 497 601C486.7 601 476.3 601 465.8 601C455.3 601 444.7 601 434.2 601C423.7 601 413.3 601 403 601C392.7 601 382.3 601 372 601C361.7 601 351.3 601 341 601C330.7 601 320.3 601 310 601C299.7 601 289.3 601 279 601C268.7 601 258.3 601 248 601C237.7 601 227.3 601 217 601C206.7 601 196.3 601 186 601C175.7 601 165.3 601 155 601C144.7 601 134.3 601 124 601C113.7 601 103.3 601 93 601C82.7 601 72.3 601 62 601C51.7 601 41.3 601 31 601C20.7 601 10.3 601 5.2 601L0 601Z" fill="#0066FF" stroke-linecap="round" stroke-linejoin="miter"></path></svg>